<?xml version="1.0" encoding="utf-8"?>
<!-- Generator: Adobe Illustrator 22.0.1, SVG Export Plug-In . SVG Version: 6.00 Build 0)  -->
<svg version="1.1" id="Слой_1" xmlns="http://www.w3.org/2000/svg" xmlns:xlink="http://www.w3.org/1999/xlink" x="0px" y="0px"
	 viewBox="0 0 350 100" style="enable-background:new 0 0 350 100;" xml:space="preserve">
<style type="text/css">
	.st0{fill:#F2C45F;}
	.st1{fill:#E5AE53;}
	.st2{fill:#F9D96D;}
	.st3{fill:#DE838B;}
	.st4{fill:#5C525F;}
	.st5{fill:#DBA44D;}
	.st6{fill:#4A3E4D;}
	.st7{fill:#FFFFFF;}
	.st8{fill:#D96971;}
	.st9{fill:none;}
	.st10{font-family:'Roboto-Black';}
	.st11{font-size:40px;}
</style>
<path class="st0" d="M73.9,13c1.6-1.3,4.1-0.2,4.1,1.9v33.6L50.3,32.2L73.9,13z"/>
<path class="st1" d="M75.4,47.1l-16.8-9.9l14-15.8c1-1.1,2.8-0.4,2.8,1.1V47.1z"/>
<path class="st0" d="M16.8,13c-1.6-1.3-4.1-0.2-4.1,1.9v33.6l27.6-16.3L16.8,13z"/>
<path class="st1" d="M15.2,47.1L32,37.1L18,21.3c-1-1.1-2.8-0.4-2.8,1.1V47.1z"/>
<ellipse class="st2" cx="45.3" cy="56.7" rx="35.2" ry="33.3"/>
<path class="st3" d="M50.3,77.4V80c0,2.8-2.2,5-5,5l0,0c-2.8,0-5-2.2-5-5v-2.5l5-2.5L50.3,77.4z"/>
<path class="st4" d="M48.1,64.5h-5.5c-1.2,0-1.9,1.4-1.1,2.3l2.8,3.4c0.6,0.7,1.6,0.7,2.2,0l2.8-3.4C49.9,65.9,49.3,64.5,48.1,64.5z
	"/>
<g>
	<path class="st5" d="M79.2,78.7c-0.2,0-0.4,0-0.6-0.1C71,74.6,59.2,72.3,59,72.2c-0.7-0.1-1.1-0.8-1-1.5c0.1-0.7,0.8-1.1,1.5-1
		c0.5,0.1,12.4,2.4,20.3,6.6c0.6,0.3,0.9,1.1,0.5,1.7C80.1,78.5,79.7,78.7,79.2,78.7z"/>
	<path class="st5" d="M81.7,69.9c-0.1,0-0.2,0-0.3,0c-7-1.9-19.8-1.5-20-1.5c-0.7,0-1.3-0.5-1.3-1.2c0-0.7,0.5-1.3,1.2-1.3
		c0.5,0,13.3-0.4,20.7,1.6c0.7,0.2,1.1,0.9,0.9,1.5C82.8,69.5,82.3,69.9,81.7,69.9z"/>
</g>
<path class="st0" d="M54.1,87.5c-19.4,0-35.2-14.9-35.2-33.3c0-13.5,8.5-25.1,20.7-30.3c-16.7,2.6-29.5,16.3-29.5,32.8
	C10.1,75.1,25.9,90,45.3,90c5.2,0,10.1-1.1,14.5-2.9C57.9,87.3,56,87.5,54.1,87.5z"/>
<g>
	<path class="st5" d="M11.4,78.7c-0.5,0-0.9-0.2-1.1-0.7c-0.3-0.6-0.1-1.4,0.5-1.7c7.9-4.1,19.8-6.5,20.3-6.6c0.7-0.1,1.3,0.3,1.5,1
		c0.1,0.7-0.3,1.3-1,1.5c-0.1,0-12,2.4-19.6,6.3C11.8,78.7,11.6,78.7,11.4,78.7z"/>
	<path class="st5" d="M8.9,69.9c-0.6,0-1.1-0.4-1.2-0.9c-0.2-0.7,0.2-1.4,0.9-1.5c7.4-2,20.1-1.6,20.7-1.6c0.7,0,1.2,0.6,1.2,1.3
		c0,0.7-0.6,1.2-1.3,1.2c-0.1,0-12.9-0.4-20,1.5C9.1,69.9,9,69.9,8.9,69.9z"/>
</g>
<path class="st6" d="M30.9,61.1L30.9,61.1c-2.4,0-4.4-2-4.4-4.4v-2.5c0-2.4,2-4.4,4.4-4.4l0,0c2.4,0,4.4,2,4.4,4.4v2.5
	C35.3,59.1,33.3,61.1,30.9,61.1z"/>
<path class="st4" d="M30.9,49.8c-0.2,0-0.4,0-0.6,0.1v6.2c0,1.4,1.1,2.5,2.5,2.5s2.5-1.1,2.5-2.5v-1.9
	C35.3,51.8,33.3,49.8,30.9,49.8z"/>
<circle class="st7" cx="30.9" cy="53" r="1.9"/>
<path class="st6" d="M59.7,61.1L59.7,61.1c-2.4,0-4.4-2-4.4-4.4v-2.5c0-2.4,2-4.4,4.4-4.4l0,0c2.4,0,4.4,2,4.4,4.4v2.5
	C64.1,59.1,62.2,61.1,59.7,61.1z"/>
<path class="st4" d="M59.7,49.8c-0.2,0-0.4,0-0.6,0.1v6.2c0,1.4,1.1,2.5,2.5,2.5c1.4,0,2.5-1.1,2.5-2.5v-1.9
	C64.1,51.8,62.2,49.8,59.7,49.8z"/>
<circle class="st7" cx="59.7" cy="53" r="1.9"/>
<path class="st6" d="M46.3,70.3l-2.8-5.5c-0.1-0.1-0.1-0.2-0.1-0.3h-0.9c-1.2,0-1.9,1.4-1.1,2.3l2.8,3.4
	C44.7,70.9,45.7,70.9,46.3,70.3C46.3,70.3,46.3,70.3,46.3,70.3z"/>
<path class="st8" d="M45.3,74.9l-5,2.5V80c0,0.4,0.1,0.8,0.1,1.2c1.3-0.2,2.5-0.5,3.6-1.1v1.2c0,0.7,0.6,1.3,1.3,1.3
	s1.3-0.6,1.3-1.3V80c1.1,0.6,2.4,0.9,3.6,1.1c0.1-0.4,0.1-0.8,0.1-1.2v-2.5L45.3,74.9z"/>
<path class="st1" d="M51.6,78.7c-1.8,0-3.5-0.5-4.9-1.5c-0.8-0.5-1.9-0.5-2.7,0c-1.5,1-3.2,1.5-4.9,1.5c-2.2,0-4.2-0.8-5.9-2.3
	c-0.5-0.5-0.6-1.3-0.1-1.8c0.5-0.5,1.3-0.6,1.8-0.1c2.1,1.9,5.4,2.1,7.7,0.5c1.6-1.1,3.9-1.1,5.5,0c2.3,1.6,5.6,1.4,7.7-0.5
	c0.5-0.5,1.3-0.4,1.8,0.1c0.5,0.5,0.4,1.3-0.1,1.8C55.8,77.9,53.7,78.7,51.6,78.7z"/>
<rect x="103.4" y="34.6" class="st9" width="343.3" height="33.3"/>
<text transform="matrix(1 0 0 1 103.4001 64.5728)" class="st10 st11">Про котиков</text>
</svg>
